<?xml version="1.0"?><svg width="640" height="480" xmlns="http://www.w3.org/2000/svg">
 <g>
  <title>Layer 1</title>
  <g id="g3">
   <path fill="#67BA06" id="path5" d="m93.020996,173.806c0,2.604996 28.656006,1.382004 31.602005,0.817001c4.888,-0.934998 -9.083,-3.121994 -10.272003,-3.175995c-1.908997,-0.085007 -21.332993,-0.904007 -21.330002,2.358994"/>
   <radialGradient transform="translate(41,42) " r="105.1645" id="XMLID_2_" gradientUnits="userSpaceOnUse" cy="36.1948" cx="52.4082">
    <stop stop-color="#D1F593" offset="0" id="stop8"/>
    <stop stop-color="#81CE09" offset="1" id="stop10"/>
   </radialGradient>
   <path fill="url(#XMLID_2_)" id="path12" d="m129.759003,168.63501c0,-8.091003 0,-16.184021 0,-24.274017c0,-4.035995 0,-8.070984 0,-12.104996c0,-2.349991 1.352997,-1.481995 3.598999,-1.481995c9.931,0 19.863998,0 29.796997,-0.001999c3.05899,0 6.410004,0.398987 9.089005,-1.408997c4.130997,-2.791008 3.639999,-7.450005 3.639999,-11.765007c0,-6.669998 2.960999,-22.258003 -3.643005,-26.719002c-5.770996,-3.897995 -18.466995,-1.410995 -24.899994,-1.410995c-2.933014,0 -17.57901,1.793999 -17.57901,-1.483002c0,-9.625 0,-19.249001 -0.001984,-28.873001c0,-7.947998 -0.02301,-15.767998 -10.349007,-15.767998c-4.741005,0 -9.482002,0 -14.226006,0c-3.513,0 -8.332001,-0.769001 -11.683998,0.649998c-7.721001,3.266003 -5.047005,17.326 -5.047005,23.847004c0,1.711998 0.272003,21.626999 -0.248993,21.626999c-8.859001,0 -17.717003,0 -26.576004,0c-7.028,0 -19.300999,-1.940002 -19.298996,8.621994c0,8.110001 0.000999,16.221001 0.000999,24.331001c0,10.633003 13.667,8.353996 20.557999,8.353996c2.071999,0 25.564995,-0.266998 25.564995,0.25c0,10.036011 0.001007,20.071014 0.001007,30.106003c0,3.248001 -0.658997,7.626007 0.647995,10.721008c2.284004,5.404999 7.695999,5.04599 12.526001,5.04599c7.361,-0.001999 28.13501,3.730011 28.130005,-8.262985"/>
   <path fill="#B2ED21" id="path14" d="m48.251999,94.400002c2.606003,0 1.384003,28.655998 0.819,31.602997c-0.938,4.889 -3.124001,-9.083 -3.177998,-10.270996c-0.085003,-1.907005 -0.902,-21.334999 2.358997,-21.332001"/>
   <path fill="#B2ED21" id="path16" d="m172.423996,94.400002c2.605011,0 1.38501,28.655998 0.820999,31.602997c-0.937988,4.889 -3.125992,-9.083 -3.179993,-10.270996c-0.085007,-1.907005 -0.899002,-21.334999 2.358994,-21.332001"/>
   <path fill="#67BA06" id="path18" d="m93.522995,126.487c2.662003,0.002998 1.336006,41.25 0.805008,45.052994c-0.355003,2.529007 -1.286003,2.272003 -1.820999,-0.050995c-1.221008,-5.300995 -1.266998,-10.990997 -1.389999,-16.400009c-0.051003,-2.196991 -0.78801,-28.604988 2.405991,-28.60199"/>
   <path fill="#B2ED21" id="path20" d="m131.714996,94.665001c0,2.654999 35.873993,1.288994 39.165009,0.885994c1.559998,-0.191994 3.560989,-0.982994 0.97699,-1.774994c-4.488998,-1.373001 -9.612,-1.360001 -14.253998,-1.5c-2.091995,-0.063004 -25.888,-0.848 -25.888,2.389"/>
   <path fill="#B2ED21" id="path22" d="m48.251999,94.400002c0.003002,-2.250999 42.617996,-1.799004 42.620003,0.000999c0,1.925003 -42.614002,5.578995 -42.620003,-0.000999"/>
   <path fill="#B2ED21" id="path24" d="m93.020996,49.632999c0,2.605999 28.656006,1.382 31.602005,0.818001c4.887009,-0.935001 -9.083,-3.123001 -10.273003,-3.176998c-1.907997,-0.085003 -21.331993,-0.903004 -21.329002,2.358997"/>
   <path fill="#B2ED21" id="path26" d="m93.020996,49.632999c-2.248001,0 -1.804001,42.301998 -0.000992,42.301998c1.959991,0.001007 5.55899,-42.301998 0.000992,-42.301998"/>
   <path fill="#B2ED21" id="path28" d="m125.795998,48.671001c-2.251999,0 -1.262001,24.247997 -1.251999,26.234997c0.017998,3.709007 -0.438995,8.161003 0.687004,11.765007c0.867996,2.779999 2.253998,-4.511002 2.306999,-4.922005c0.424995,-3.336006 3.335991,-33.084 -1.742004,-33.077999"/>
   <path fill="#67BA06" id="path30" d="m125.794998,127.795998c-1.947998,-0.004997 -1.255997,23.107002 -1.255997,25.114006c0,5.747986 -0.266998,11.604004 0.326996,17.332001c0.328003,3.175003 1.466003,3.463989 2.171005,0.210999c0.701996,-3.227997 3.572006,-42.667999 -1.242004,-42.657005"/>
   <path fill="#67BA06" id="path32" d="m48.702,125.764999c-0.002998,-2.246002 24.249996,-1.262001 26.234005,-1.25c3.710999,0.017998 8.161995,-0.439003 11.764999,0.684998c2.781998,0.868004 -4.512009,2.256004 -4.920006,2.308006c-3.334,0.423996 -33.089996,3.329002 -33.078999,-1.743004"/>
   <path fill="#67BA06" id="path34" d="m128,125.768997c-0.001999,-1.971001 22.218994,-1.260994 24.127991,-1.260994c5.747009,0 11.603012,-0.263 17.332016,0.329994c3.172989,0.328003 3.464996,1.465004 0.21199,2.172005c-3.237,0.702995 -41.671997,3.653999 -41.671997,-1.241005"/>
   <path fill="#5A9908" id="path36" d="m128.033997,45.068001c-4.524994,-4.524002 -14.503998,-2.708 -20.251999,-2.708c-6.961998,0 -18.207001,-1.921001 -20.119995,7.383999c-1.219002,5.928001 -0.188004,12.916 -0.188004,18.910999c0,6.611 0,13.222 0,19.832001c-8.833,-0.007996 -17.665001,-0.000999 -26.499001,0c-7.964996,0 -19.625,-1.492004 -19.625,10.033997c0,7.876007 -0.785,16.157005 0,23.991005c0,11.920006 15.899002,9.243004 23.558006,9.243004c2.704994,0 22.567993,-1.096008 22.567993,0.987c0,9.687988 0,19.377991 0,29.067993c0,8.969009 1.344002,16.06601 12.167007,16.06601c4.876999,0 9.754997,0 14.631996,0c3.908997,0.001999 8.924995,0.744995 12.348999,-1.544006c6.667,-4.459 4.118004,-18.014999 4.118004,-24.75c0,-5.028 0,-10.056 0,-15.085999c0,-3.110992 -1.063004,-4.742004 2.207993,-4.742004c9.972,0 19.945999,0 29.917007,0c3.367004,0 6.974991,0.410004 9.919998,-1.580994c4.464005,-3.017006 4.080002,-7.903008 4.080002,-12.576004c0,-7.165001 2.960999,-22.768997 -4.080002,-27.529999c-2.945007,-1.994003 -6.556992,-1.582001 -9.919998,-1.582001c-5.479004,0 -10.955994,0 -16.436005,0c-4.494003,0 -8.987,0 -13.481003,0c-3.270996,0 -2.207993,-1.632996 -2.207993,-4.742996c0,-9.967003 0,-19.933006 0,-29.899002c-0.001007,-3.237003 -0.231003,-6.299004 -2.708008,-8.775002m-84.720997,77.443001c0,-7.999001 -0.000999,-15.994003 -0.000999,-23.992996c0,-10.355011 12.501999,-8.070007 19.41,-8.070007c8.823997,0 17.647003,0 26.470001,0c0.509995,0 0.244003,-19.770996 0.244003,-21.452995c0,-5.939003 -2.714005,-20.589005 4.082001,-23.931004c2.917999,-1.434998 7.306,-0.742001 10.421997,-0.742001c5.157997,0.002003 10.313995,0.003002 15.471001,0.003002c10.646004,0 9.367989,9.181 9.367989,16.950001c0,9.407997 0,18.816994 0,28.226997c0,3.363998 37.980011,-1.798996 43.395004,2.546997c5.699997,4.578003 2.729004,20.288002 2.729004,26.590004c0,4.008003 0.199997,8.305 -4.082993,10.410011c-2.694,1.322998 -6.632004,0.740997 -9.520996,0.740997c-9.923004,0 -19.847015,0 -29.768005,0c-2.088013,0 -2.753006,-0.64801 -2.753006,1.453995c0,4.421997 0,8.844986 0,13.26799c0,7.826996 0.983002,16.351013 0,24.124008c0,10.686005 -19.483002,7.276993 -26.028,7.276993c-4.356003,-0.001999 -9.752998,0.843002 -12.347,-3.644989c-1.584999,-2.744003 -0.966995,-6.932007 -0.966995,-9.959015c0,-10.355988 0,-20.71199 0,-31.064987c0.000992,-6.973 -46.136005,7.244003 -46.123005,-8.733002"/>
  </g>
 </g>
 <defs>
  <radialGradient r="0.5" cy="0.5" cx="0.5" id="svg_1">
   <stop stop-color="#ff0000" offset="0"/>
   <stop stop-color="#ffff00" offset="1"/>
  </radialGradient>
 </defs>
</svg>